<svg width="22" height="22" viewBox="0 0 22 22" fill="none" xmlns="http://www.w3.org/2000/svg">
<path d="M11 20.8438C17.7969 20.8438 20.375 19.4375 20.375 14.2812" stroke="#183456" stroke-width="1.5" stroke-linecap="round" stroke-linejoin="round"/>
<path d="M2.93891 16.5233C2.14953 16.3259 1.625 15.6055 1.625 14.7922V13.3438V11.8963C1.625 11.0825 2.14953 10.3616 2.93891 10.1642C3.70109 9.97344 4.70234 9.75923 5.68672 9.6561C6.36078 9.58532 6.95422 9.98048 7.06625 10.6484C7.16469 11.2316 7.25 12.0974 7.25 13.3438C7.25 14.5906 7.16422 15.4564 7.06625 16.0391C6.95375 16.707 6.36078 17.1022 5.68672 17.0319C4.70234 16.9288 3.70109 16.7141 2.93891 16.5233Z" stroke="#183456" stroke-width="1.5" stroke-linecap="round" stroke-linejoin="round"/>
<path d="M19.0611 16.5233C19.8505 16.3259 20.375 15.6055 20.375 14.7922V13.3438V11.8963C20.375 11.0825 19.8505 10.3616 19.0611 10.1642C18.2989 9.97344 17.2977 9.75923 16.3133 9.6561C15.6392 9.58532 15.0458 9.98048 14.9338 10.6484C14.8353 11.2316 14.75 12.0974 14.75 13.3438C14.75 14.5906 14.8358 15.4564 14.9338 16.0391C15.0463 16.707 15.6392 17.1022 16.3133 17.0319C17.2977 16.9288 18.2989 16.7141 19.0611 16.5233Z" stroke="#183456" stroke-width="1.5" stroke-linecap="round" stroke-linejoin="round"/>
<path d="M20.375 11.8958V10.5312C20.375 5.35344 16.1778 1.15625 11 1.15625C5.82219 1.15625 1.625 5.35344 1.625 10.5312V11.8958M17.5419 9.83422C17.2747 6.55156 14.4481 3.96875 11 3.96875C7.55234 3.96875 4.72531 6.55156 4.45813 9.83422" stroke="#183456" stroke-width="1.5" stroke-linecap="round" stroke-linejoin="round"/>
</svg>
