<svg width="24" height="24" viewBox="0 0 24 24" fill="none" xmlns="http://www.w3.org/2000/svg">
<path d="M12 1.65088V3.24302" stroke="black" stroke-width="1.71" stroke-linecap="round" stroke-linejoin="round"/>
<path d="M16.7764 3.24285L17.5724 2.44678" stroke="black" stroke-width="1.71" stroke-linecap="round" stroke-linejoin="round"/>
<path d="M7.22381 3.24285L6.42773 2.44678" stroke="black" stroke-width="1.71" stroke-linecap="round" stroke-linejoin="round"/>
<path d="M22.3489 22.3486H18.612C15.3181 22.3486 12.5678 19.837 12.2695 16.5566L12.0863 14.5406C12.0336 13.9613 12.3198 13.4037 12.8212 13.1088C13.7302 12.574 14.8929 13.1171 15.0663 14.1574L15.5027 16.7761" stroke="black" stroke-width="1.71" stroke-linecap="round" stroke-linejoin="round"/>
<path d="M22.3491 16.7706H19.7626C18.9647 16.7706 18.2899 16.1798 18.1845 15.3889L17.1835 7.88112C17.0014 6.515 15.4162 5.84976 14.3137 6.67668C13.8596 7.01727 13.5923 7.55182 13.5923 8.11948V12.7902" stroke="black" stroke-width="1.71" stroke-linecap="round" stroke-linejoin="round"/>
<path d="M1.65088 22.3486H5.38786C8.68171 22.3486 11.4321 19.837 11.7303 16.5566L11.9135 14.5406C11.9662 13.9613 11.68 13.4037 11.1786 13.1088C10.2696 12.574 9.10692 13.1171 8.93355 14.1574L8.4971 16.7761" stroke="black" stroke-width="1.71" stroke-linecap="round" stroke-linejoin="round"/>
<path d="M1.65088 16.7701H4.23729C5.03527 16.7701 5.71 16.1794 5.81547 15.3884L6.81649 7.88063C6.99865 6.51451 8.58369 5.84927 9.68627 6.67619C10.1404 7.01679 10.4077 7.55133 10.4077 8.11899V12.7897" stroke="black" stroke-width="1.71" stroke-linecap="round" stroke-linejoin="round"/>
</svg>
