<svg width="24" height="24" viewBox="0 0 24 24" fill="none" xmlns="http://www.w3.org/2000/svg">
<path d="M19.1645 8.865C19.1735 7.58613 18.8397 6.32821 18.1983 5.22182C17.5568 4.11544 16.6308 3.20093 15.5166 2.57322C14.4023 1.94552 13.1404 1.62751 11.8617 1.65222C10.583 1.67692 9.3343 2.04343 8.24511 2.7137C7.15593 3.38396 6.26602 4.33356 5.66774 5.46389C5.06947 6.59423 4.78465 7.86409 4.84288 9.14167C4.90109 10.4192 5.30022 11.6579 5.99881 12.7292C6.69741 13.8004 7.67 14.6651 8.81564 15.2336V17.6218C8.81564 17.8329 8.8995 18.0355 9.04879 18.1846C9.19809 18.334 9.40058 18.4179 9.61171 18.4179H14.3881C14.5993 18.4179 14.8017 18.334 14.951 18.1846C15.1003 18.0355 15.1842 17.8329 15.1842 17.6218V15.2336C16.3743 14.6472 17.3774 13.7406 18.0804 12.6156C18.7835 11.4905 19.159 10.1917 19.1645 8.865Z" stroke="#183456" stroke-width="1.71" stroke-linecap="round" stroke-linejoin="round"/>
<path d="M8.81543 22.3486H15.184" stroke="#183456" stroke-width="1.71" stroke-linecap="round" stroke-linejoin="round"/>
</svg>
