<svg width="73" height="45" viewBox="0 0 73 45" fill="none" xmlns="http://www.w3.org/2000/svg">
<path d="M59.2079 28.5299H53.5834V21.8293H59.2079C60.4143 21.8293 61.3924 21.6233 62.1424 21.2112C62.8923 20.7991 63.4384 20.2304 63.7808 19.5051C64.1394 18.7634 64.3188 17.931 64.3188 17.0079C64.3188 16.0189 64.1394 15.104 63.7808 14.2634C63.4384 13.4227 62.8923 12.7469 62.1424 12.2359C61.3924 11.7084 60.4143 11.4447 59.2079 11.4447H53.5834V40.7441H45V4.74414H59.2079C62.0608 4.74414 64.5144 5.27161 66.5686 6.32656C68.639 7.3815 70.2285 8.83205 71.3371 10.6782C72.4457 12.5079 73 14.6013 73 16.9584C73 19.2826 72.4457 21.3101 71.3371 23.0408C70.2285 24.7716 68.639 26.1233 66.5686 27.0958C64.5144 28.0518 62.0608 28.5299 59.2079 28.5299Z" fill="#183456"/>
<path d="M14.7153 28.1906H8.88996V21.3039H14.7153C15.9648 21.3039 16.9779 21.0921 17.7546 20.6686C18.5313 20.2451 19.0969 19.6606 19.4515 18.9152C19.823 18.1528 20.0087 17.2973 20.0087 16.3485C20.0087 15.3321 19.823 14.3918 19.4515 13.5278C19.0969 12.6638 18.5313 11.9692 17.7546 11.444C16.9779 10.9019 15.9648 10.6308 14.7153 10.6308H8.88996V40.7441H0V3.74414H14.7153C17.6702 3.74414 20.2114 4.28627 22.3389 5.37051C24.4833 6.45476 26.1295 7.94561 27.2777 9.84304C28.4259 11.7235 29 13.8751 29 16.2977C29 18.6864 28.4259 20.7702 27.2777 22.5491C26.1295 24.3279 24.4833 25.7171 22.3389 26.7167C20.2114 27.6993 17.6702 28.1906 14.7153 28.1906Z" fill="#183456"/>
<path d="M45.1709 4.00391L45.2274 26.4248L38.9357 41.2914L29.2922 41.2914L45.1709 4.00391Z" fill="#B7B6B6"/>
<path d="M28.3551 3.51294L38.1002 3.51285L22.1199 40.8004L12.4764 40.8004L28.3551 3.51294Z" fill="#B7B6B6"/>
</svg>
