<svg width="30" height="31" viewBox="0 0 30 31" fill="none" xmlns="http://www.w3.org/2000/svg">
<path d="M24.375 10.9716C24.375 17.6193 15 25.375 15 25.375C15 25.375 5.625 17.6193 5.625 10.9716C5.625 5.5404 9.89375 1 15 1C20.1063 1 24.375 5.5404 24.375 10.9716Z" fill="white" stroke="white" stroke-width="2" stroke-linecap="round" stroke-linejoin="round"/>
<path d="M15.0001 14.9286C16.7753 14.9286 18.2143 13.4895 18.2143 11.7143C18.2143 9.93908 16.7753 8.5 15.0001 8.5C13.2249 8.5 11.7858 9.93908 11.7858 11.7143C11.7858 13.4895 13.2249 14.9286 15.0001 14.9286Z" fill="#183456" stroke="#183456" stroke-width="2" stroke-linecap="round" stroke-linejoin="round"/>
<path d="M23.737 22.4287H25.7143L28.9286 29.9287H1.07141L4.2857 22.4287H6.26292" stroke="white" stroke-width="2" stroke-linecap="round" stroke-linejoin="round"/>
</svg>
